<?xml version="1.0" encoding="utf-8"?>
<!-- Svg Vector Icons : http://www.onlinewebfonts.com/icon -->
<!DOCTYPE svg PUBLIC "-//W3C//DTD SVG 1.1//EN" "http://www.w3.org/Graphics/SVG/1.1/DTD/svg11.dtd">
<svg version="1.1" xmlns="http://www.w3.org/2000/svg" xmlns:xlink="http://www.w3.org/1999/xlink" x="0px" y="0px" viewBox="0 0 1000 1000" enable-background="new 0 0 1000 1000" xml:space="preserve">
<metadata> Svg Vector Icons : http://www.onlinewebfonts.com/icon </metadata>
<g><path d="M417.7,825.3C192.9,825.3,10,642.5,10,417.7S192.9,10,417.7,10c224.8,0,407.7,182.9,407.7,407.7S642.5,825.3,417.7,825.3z M417.7,99.1C242,99.1,99.1,242,99.1,417.7S242,736.3,417.7,736.3c175.7,0,318.6-142.9,318.6-318.6S593.3,99.1,417.7,99.1z"/><path d="M945.5,990c-11.4,0-22.8-4.3-31.5-13l-261-261c-17.4-17.4-17.4-45.6,0-63c17.4-17.4,45.6-17.4,63,0l261,261c17.4,17.4,17.4,45.6,0,63C968.3,985.7,956.9,990,945.5,990z"/></g>
</svg>